solid OpenSCAD_Model
  facet normal 0.309027 0.951053 -0
    outer loop
      vertex -36.1601 37.4538 8
      vertex -37.3899 37.8534 10
      vertex -36.1601 37.4538 10
    endloop
  endfacet
  facet normal 0.309027 0.951053 0
    outer loop
      vertex -37.3899 37.8534 10
      vertex -36.1601 37.4538 8
      vertex -37.3899 37.8534 8
    endloop
  endfacet
  facet normal 0.309027 -0.951053 0
    outer loop
      vertex -37.3899 39.1466 8
      vertex -36.1601 39.5462 10
      vertex -37.3899 39.1466 10
    endloop
  endfacet
  facet normal 0.309027 -0.951053 0
    outer loop
      vertex -36.1601 39.5462 10
      vertex -37.3899 39.1466 8
      vertex -36.1601 39.5462 8
    endloop
  endfacet
  facet normal -0.80902 -0.587781 0
    outer loop
      vertex -35.4 38.5 8
      vertex -36.1601 39.5462 10
      vertex -36.1601 39.5462 8
    endloop
  endfacet
  facet normal -0.80902 -0.587781 0
    outer loop
      vertex -36.1601 39.5462 10
      vertex -35.4 38.5 8
      vertex -35.4 38.5 10
    endloop
  endfacet
  facet normal 1 -0 0
    outer loop
      vertex -37.3899 37.8534 10
      vertex -37.3899 39.1466 8
      vertex -37.3899 39.1466 10
    endloop
  endfacet
  facet normal 1 0 0
    outer loop
      vertex -37.3899 39.1466 8
      vertex -37.3899 37.8534 10
      vertex -37.3899 37.8534 8
    endloop
  endfacet
  facet normal -0.80902 0.587781 0
    outer loop
      vertex -36.1601 37.4538 8
      vertex -35.4 38.5 10
      vertex -35.4 38.5 8
    endloop
  endfacet
  facet normal -0.80902 0.587781 0
    outer loop
      vertex -35.4 38.5 10
      vertex -36.1601 37.4538 8
      vertex -36.1601 37.4538 10
    endloop
  endfacet
  facet normal 0.309027 0.951053 -0
    outer loop
      vertex -36.1601 70.4538 8
      vertex -37.3899 70.8534 10
      vertex -36.1601 70.4538 10
    endloop
  endfacet
  facet normal 0.309027 0.951053 0
    outer loop
      vertex -37.3899 70.8534 10
      vertex -36.1601 70.4538 8
      vertex -37.3899 70.8534 8
    endloop
  endfacet
  facet normal 0.309027 -0.951053 0
    outer loop
      vertex -37.3899 72.1466 8
      vertex -36.1601 72.5462 10
      vertex -37.3899 72.1466 10
    endloop
  endfacet
  facet normal 0.309027 -0.951053 0
    outer loop
      vertex -36.1601 72.5462 10
      vertex -37.3899 72.1466 8
      vertex -36.1601 72.5462 8
    endloop
  endfacet
  facet normal -0.80902 -0.587781 0
    outer loop
      vertex -35.4 71.5 8
      vertex -36.1601 72.5462 10
      vertex -36.1601 72.5462 8
    endloop
  endfacet
  facet normal -0.80902 -0.587781 0
    outer loop
      vertex -36.1601 72.5462 10
      vertex -35.4 71.5 8
      vertex -35.4 71.5 10
    endloop
  endfacet
  facet normal 1 -0 0
    outer loop
      vertex -37.3899 70.8534 10
      vertex -37.3899 72.1466 8
      vertex -37.3899 72.1466 10
    endloop
  endfacet
  facet normal 1 0 0
    outer loop
      vertex -37.3899 72.1466 8
      vertex -37.3899 70.8534 10
      vertex -37.3899 70.8534 8
    endloop
  endfacet
  facet normal -0.80902 0.587781 0
    outer loop
      vertex -36.1601 70.4538 8
      vertex -35.4 71.5 10
      vertex -35.4 71.5 8
    endloop
  endfacet
  facet normal -0.80902 0.587781 0
    outer loop
      vertex -35.4 71.5 10
      vertex -36.1601 70.4538 8
      vertex -36.1601 70.4538 10
    endloop
  endfacet
  facet normal 0.309027 0.951053 -0
    outer loop
      vertex 36.8399 37.4538 8
      vertex 35.6101 37.8534 10
      vertex 36.8399 37.4538 10
    endloop
  endfacet
  facet normal 0.309027 0.951053 0
    outer loop
      vertex 35.6101 37.8534 10
      vertex 36.8399 37.4538 8
      vertex 35.6101 37.8534 8
    endloop
  endfacet
  facet normal 0.309027 -0.951053 0
    outer loop
      vertex 35.6101 39.1466 8
      vertex 36.8399 39.5462 10
      vertex 35.6101 39.1466 10
    endloop
  endfacet
  facet normal 0.309027 -0.951053 0
    outer loop
      vertex 36.8399 39.5462 10
      vertex 35.6101 39.1466 8
      vertex 36.8399 39.5462 8
    endloop
  endfacet
  facet normal -0.80902 -0.587781 0
    outer loop
      vertex 37.6 38.5 8
      vertex 36.8399 39.5462 10
      vertex 36.8399 39.5462 8
    endloop
  endfacet
  facet normal -0.80902 -0.587781 0
    outer loop
      vertex 36.8399 39.5462 10
      vertex 37.6 38.5 8
      vertex 37.6 38.5 10
    endloop
  endfacet
  facet normal 1 -0 0
    outer loop
      vertex 35.6101 37.8534 10
      vertex 35.6101 39.1466 8
      vertex 35.6101 39.1466 10
    endloop
  endfacet
  facet normal 1 0 0
    outer loop
      vertex 35.6101 39.1466 8
      vertex 35.6101 37.8534 10
      vertex 35.6101 37.8534 8
    endloop
  endfacet
  facet normal -0.80902 0.587781 0
    outer loop
      vertex 36.8399 37.4538 8
      vertex 37.6 38.5 10
      vertex 37.6 38.5 8
    endloop
  endfacet
  facet normal -0.80902 0.587781 0
    outer loop
      vertex 37.6 38.5 10
      vertex 36.8399 37.4538 8
      vertex 36.8399 37.4538 10
    endloop
  endfacet
  facet normal 0.309027 0.951053 -0
    outer loop
      vertex 36.8399 70.4538 8
      vertex 35.6101 70.8534 10
      vertex 36.8399 70.4538 10
    endloop
  endfacet
  facet normal 0.309027 0.951053 0
    outer loop
      vertex 35.6101 70.8534 10
      vertex 36.8399 70.4538 8
      vertex 35.6101 70.8534 8
    endloop
  endfacet
  facet normal 0.309027 -0.951053 0
    outer loop
      vertex 35.6101 72.1466 8
      vertex 36.8399 72.5462 10
      vertex 35.6101 72.1466 10
    endloop
  endfacet
  facet normal 0.309027 -0.951053 0
    outer loop
      vertex 36.8399 72.5462 10
      vertex 35.6101 72.1466 8
      vertex 36.8399 72.5462 8
    endloop
  endfacet
  facet normal -0.80902 -0.587781 0
    outer loop
      vertex 37.6 71.5 8
      vertex 36.8399 72.5462 10
      vertex 36.8399 72.5462 8
    endloop
  endfacet
  facet normal -0.80902 -0.587781 0
    outer loop
      vertex 36.8399 72.5462 10
      vertex 37.6 71.5 8
      vertex 37.6 71.5 10
    endloop
  endfacet
  facet normal 1 -0 0
    outer loop
      vertex 35.6101 70.8534 10
      vertex 35.6101 72.1466 8
      vertex 35.6101 72.1466 10
    endloop
  endfacet
  facet normal 1 0 0
    outer loop
      vertex 35.6101 72.1466 8
      vertex 35.6101 70.8534 10
      vertex 35.6101 70.8534 8
    endloop
  endfacet
  facet normal -0.80902 0.587781 0
    outer loop
      vertex 36.8399 70.4538 8
      vertex 37.6 71.5 10
      vertex 37.6 71.5 8
    endloop
  endfacet
  facet normal -0.80902 0.587781 0
    outer loop
      vertex 37.6 71.5 10
      vertex 36.8399 70.4538 8
      vertex 36.8399 70.4538 10
    endloop
  endfacet
  facet normal -1 0 0
    outer loop
      vertex -40.2 36.8 8
      vertex -40.2 73.2 10
      vertex -40.2 73.2 8
    endloop
  endfacet
  facet normal -1 -0 0
    outer loop
      vertex -40.2 73.2 10
      vertex -40.2 36.8 8
      vertex -40.2 36.8 10
    endloop
  endfacet
  facet normal 0.433866 -0.900977 0
    outer loop
      vertex 38.2 34.8 8
      vertex 39.7637 35.553 10
      vertex 38.2 34.8 10
    endloop
  endfacet
  facet normal 0.433866 -0.900977 0
    outer loop
      vertex 39.7637 35.553 10
      vertex 38.2 34.8 8
      vertex 39.7637 35.553 8
    endloop
  endfacet
  facet normal -0.330249 -0.943894 0
    outer loop
      vertex -39.447 35.2363 8
      vertex -38.2 34.8 10
      vertex -39.447 35.2363 10
    endloop
  endfacet
  facet normal -0.330249 -0.943894 -0
    outer loop
      vertex -38.2 34.8 10
      vertex -39.447 35.2363 8
      vertex -38.2 34.8 8
    endloop
  endfacet
  facet normal 0.943894 -0.330249 0
    outer loop
      vertex 39.7637 35.553 10
      vertex 40.2 36.8 8
      vertex 40.2 36.8 10
    endloop
  endfacet
  facet normal 0.943894 -0.330249 0
    outer loop
      vertex 40.2 36.8 8
      vertex 39.7637 35.553 10
      vertex 39.7637 35.553 8
    endloop
  endfacet
  facet normal -0.433866 0.900977 0
    outer loop
      vertex -38.2 75.2 8
      vertex -39.7637 74.447 10
      vertex -38.2 75.2 10
    endloop
  endfacet
  facet normal -0.433866 0.900977 0
    outer loop
      vertex -39.7637 74.447 10
      vertex -38.2 75.2 8
      vertex -39.7637 74.447 8
    endloop
  endfacet
  facet normal 0.330249 0.943894 -0
    outer loop
      vertex 39.447 74.7637 8
      vertex 38.2 75.2 10
      vertex 39.447 74.7637 10
    endloop
  endfacet
  facet normal 0.330249 0.943894 0
    outer loop
      vertex 38.2 75.2 10
      vertex 39.447 74.7637 8
      vertex 38.2 75.2 8
    endloop
  endfacet
  facet normal 0 1 -0
    outer loop
      vertex 38.2 75.2 8
      vertex -38.2 75.2 10
      vertex 38.2 75.2 10
    endloop
  endfacet
  facet normal 0 1 0
    outer loop
      vertex -38.2 75.2 10
      vertex 38.2 75.2 8
      vertex -38.2 75.2 8
    endloop
  endfacet
  facet normal 0 -1 0
    outer loop
      vertex -38.2 34.8 8
      vertex 38.2 34.8 10
      vertex -38.2 34.8 10
    endloop
  endfacet
  facet normal 0 -1 -0
    outer loop
      vertex 38.2 34.8 10
      vertex -38.2 34.8 8
      vertex 38.2 34.8 8
    endloop
  endfacet
  facet normal 0.900977 0.433866 0
    outer loop
      vertex 40.2 73.2 10
      vertex 39.447 74.7637 8
      vertex 39.447 74.7637 10
    endloop
  endfacet
  facet normal 0.900977 0.433866 0
    outer loop
      vertex 39.447 74.7637 8
      vertex 40.2 73.2 10
      vertex 40.2 73.2 8
    endloop
  endfacet
  facet normal 1 -0 0
    outer loop
      vertex 40.2 36.8 10
      vertex 40.2 73.2 8
      vertex 40.2 73.2 10
    endloop
  endfacet
  facet normal 1 0 0
    outer loop
      vertex 40.2 73.2 8
      vertex 40.2 36.8 10
      vertex 40.2 36.8 8
    endloop
  endfacet
  facet normal -0.943894 0.330249 0
    outer loop
      vertex -40.2 73.2 8
      vertex -39.7637 74.447 10
      vertex -39.7637 74.447 8
    endloop
  endfacet
  facet normal -0.943894 0.330249 0
    outer loop
      vertex -39.7637 74.447 10
      vertex -40.2 73.2 8
      vertex -40.2 73.2 10
    endloop
  endfacet
  facet normal -0.900977 -0.433866 0
    outer loop
      vertex -39.447 35.2363 8
      vertex -40.2 36.8 10
      vertex -40.2 36.8 8
    endloop
  endfacet
  facet normal -0.900977 -0.433866 0
    outer loop
      vertex -40.2 36.8 10
      vertex -39.447 35.2363 8
      vertex -39.447 35.2363 10
    endloop
  endfacet
  facet normal 0 0 -1
    outer loop
      vertex -36.1601 39.5462 8
      vertex -35.4 71.5 8
      vertex -35.4 38.5 8
    endloop
  endfacet
  facet normal 0 0 -1
    outer loop
      vertex -36.1601 39.5462 8
      vertex -36.1601 70.4538 8
      vertex -35.4 71.5 8
    endloop
  endfacet
  facet normal 0 0 -1
    outer loop
      vertex -37.3899 39.1466 8
      vertex -36.1601 70.4538 8
      vertex -36.1601 39.5462 8
    endloop
  endfacet
  facet normal -0 0 -1
    outer loop
      vertex -36.1601 70.4538 8
      vertex -37.3899 39.1466 8
      vertex -37.3899 70.8534 8
    endloop
  endfacet
  facet normal 0 0 -1
    outer loop
      vertex 36.8399 70.4538 8
      vertex 40.2 73.2 8
      vertex 36.8399 39.5462 8
    endloop
  endfacet
  facet normal 0 0 -1
    outer loop
      vertex 40.2 73.2 8
      vertex 36.8399 70.4538 8
      vertex 37.6 71.5 8
    endloop
  endfacet
  facet normal 0 0 -1
    outer loop
      vertex 35.6101 39.1466 8
      vertex 36.8399 70.4538 8
      vertex 36.8399 39.5462 8
    endloop
  endfacet
  facet normal -0 0 -1
    outer loop
      vertex 36.8399 70.4538 8
      vertex 35.6101 39.1466 8
      vertex 35.6101 70.8534 8
    endloop
  endfacet
  facet normal 0 0 -1
    outer loop
      vertex 36.8399 37.4538 8
      vertex 40.2 36.8 8
      vertex 39.7637 35.553 8
    endloop
  endfacet
  facet normal 0 0 -1
    outer loop
      vertex 36.8399 39.5462 8
      vertex 40.2 36.8 8
      vertex 37.6 38.5 8
    endloop
  endfacet
  facet normal 0 0 -1
    outer loop
      vertex 36.8399 37.4538 8
      vertex 39.7637 35.553 8
      vertex 38.2 34.8 8
    endloop
  endfacet
  facet normal 0 0 -1
    outer loop
      vertex 40.2 36.8 8
      vertex 36.8399 39.5462 8
      vertex 40.2 73.2 8
    endloop
  endfacet
  facet normal 0 0 -1
    outer loop
      vertex 36.8399 72.5462 8
      vertex 40.2 73.2 8
      vertex 37.6 71.5 8
    endloop
  endfacet
  facet normal 0 0 -1
    outer loop
      vertex 40.2 36.8 8
      vertex 36.8399 37.4538 8
      vertex 37.6 38.5 8
    endloop
  endfacet
  facet normal 0 0 -1
    outer loop
      vertex 38.2 34.8 8
      vertex 35.6101 37.8534 8
      vertex 36.8399 37.4538 8
    endloop
  endfacet
  facet normal 0 0 -1
    outer loop
      vertex -35.4 38.5 8
      vertex 35.6101 39.1466 8
      vertex 35.6101 37.8534 8
    endloop
  endfacet
  facet normal -0 0 -1
    outer loop
      vertex 35.6101 39.1466 8
      vertex -35.4 38.5 8
      vertex 35.6101 70.8534 8
    endloop
  endfacet
  facet normal 0 0 -1
    outer loop
      vertex -35.4 71.5 8
      vertex 35.6101 70.8534 8
      vertex -35.4 38.5 8
    endloop
  endfacet
  facet normal 0 0 -1
    outer loop
      vertex -38.2 34.8 8
      vertex 35.6101 37.8534 8
      vertex 38.2 34.8 8
    endloop
  endfacet
  facet normal -0 0 -1
    outer loop
      vertex 35.6101 37.8534 8
      vertex -36.1601 37.4538 8
      vertex -35.4 38.5 8
    endloop
  endfacet
  facet normal 0 0 -1
    outer loop
      vertex -40.2 36.8 8
      vertex -37.3899 39.1466 8
      vertex -37.3899 37.8534 8
    endloop
  endfacet
  facet normal -0 0 -1
    outer loop
      vertex -37.3899 39.1466 8
      vertex -40.2 36.8 8
      vertex -37.3899 70.8534 8
    endloop
  endfacet
  facet normal 0 0 -1
    outer loop
      vertex -39.447 35.2363 8
      vertex -37.3899 37.8534 8
      vertex -38.2 34.8 8
    endloop
  endfacet
  facet normal -0 0 -1
    outer loop
      vertex -36.1601 37.4538 8
      vertex -38.2 34.8 8
      vertex -37.3899 37.8534 8
    endloop
  endfacet
  facet normal 0 0 -1
    outer loop
      vertex 35.6101 37.8534 8
      vertex -38.2 34.8 8
      vertex -36.1601 37.4538 8
    endloop
  endfacet
  facet normal -0 0 -1
    outer loop
      vertex 40.2 73.2 8
      vertex 36.8399 72.5462 8
      vertex 39.447 74.7637 8
    endloop
  endfacet
  facet normal -0 0 -1
    outer loop
      vertex 39.447 74.7637 8
      vertex 36.8399 72.5462 8
      vertex 38.2 75.2 8
    endloop
  endfacet
  facet normal 0 0 -1
    outer loop
      vertex 35.6101 72.1466 8
      vertex 38.2 75.2 8
      vertex 36.8399 72.5462 8
    endloop
  endfacet
  facet normal 0 0 -1
    outer loop
      vertex 35.6101 70.8534 8
      vertex -35.4 71.5 8
      vertex 35.6101 72.1466 8
    endloop
  endfacet
  facet normal 0 0 -1
    outer loop
      vertex -36.1601 72.5462 8
      vertex 35.6101 72.1466 8
      vertex -35.4 71.5 8
    endloop
  endfacet
  facet normal 0 0 -1
    outer loop
      vertex -38.2 75.2 8
      vertex 35.6101 72.1466 8
      vertex -36.1601 72.5462 8
    endloop
  endfacet
  facet normal 0 0 -1
    outer loop
      vertex 35.6101 72.1466 8
      vertex -38.2 75.2 8
      vertex 38.2 75.2 8
    endloop
  endfacet
  facet normal 0 0 -1
    outer loop
      vertex -37.3899 72.1466 8
      vertex -38.2 75.2 8
      vertex -36.1601 72.5462 8
    endloop
  endfacet
  facet normal 0 0 -1
    outer loop
      vertex -40.2 73.2 8
      vertex -37.3899 70.8534 8
      vertex -40.2 36.8 8
    endloop
  endfacet
  facet normal 0 0 -1
    outer loop
      vertex -37.3899 37.8534 8
      vertex -39.447 35.2363 8
      vertex -40.2 36.8 8
    endloop
  endfacet
  facet normal 0 0 -1
    outer loop
      vertex -37.3899 70.8534 8
      vertex -40.2 73.2 8
      vertex -37.3899 72.1466 8
    endloop
  endfacet
  facet normal 0 -0 -1
    outer loop
      vertex -39.7637 74.447 8
      vertex -37.3899 72.1466 8
      vertex -40.2 73.2 8
    endloop
  endfacet
  facet normal 0 0 -1
    outer loop
      vertex -37.3899 72.1466 8
      vertex -39.7637 74.447 8
      vertex -38.2 75.2 8
    endloop
  endfacet
  facet normal -0 0 1
    outer loop
      vertex -36.1601 70.4538 10
      vertex -35.4 38.5 10
      vertex -35.4 71.5 10
    endloop
  endfacet
  facet normal 0 0 1
    outer loop
      vertex -36.1601 70.4538 10
      vertex -36.1601 39.5462 10
      vertex -35.4 38.5 10
    endloop
  endfacet
  facet normal 0 0 1
    outer loop
      vertex -37.3899 70.8534 10
      vertex -36.1601 39.5462 10
      vertex -36.1601 70.4538 10
    endloop
  endfacet
  facet normal 0 0 1
    outer loop
      vertex -36.1601 39.5462 10
      vertex -37.3899 70.8534 10
      vertex -37.3899 39.1466 10
    endloop
  endfacet
  facet normal -0 0 1
    outer loop
      vertex 36.8399 39.5462 10
      vertex 40.2 36.8 10
      vertex 36.8399 70.4538 10
    endloop
  endfacet
  facet normal 0 0 1
    outer loop
      vertex 40.2 36.8 10
      vertex 36.8399 39.5462 10
      vertex 37.6 38.5 10
    endloop
  endfacet
  facet normal 0 0 1
    outer loop
      vertex 35.6101 70.8534 10
      vertex 36.8399 39.5462 10
      vertex 36.8399 70.4538 10
    endloop
  endfacet
  facet normal 0 0 1
    outer loop
      vertex 36.8399 39.5462 10
      vertex 35.6101 70.8534 10
      vertex 35.6101 39.1466 10
    endloop
  endfacet
  facet normal -0 0 1
    outer loop
      vertex 36.8399 70.4538 10
      vertex 40.2 36.8 10
      vertex 40.2 73.2 10
    endloop
  endfacet
  facet normal 0 0 1
    outer loop
      vertex 36.8399 72.5462 10
      vertex 40.2 73.2 10
      vertex 39.447 74.7637 10
    endloop
  endfacet
  facet normal 0 0 1
    outer loop
      vertex 36.8399 72.5462 10
      vertex 39.447 74.7637 10
      vertex 38.2 75.2 10
    endloop
  endfacet
  facet normal 0 0 1
    outer loop
      vertex 36.8399 70.4538 10
      vertex 40.2 73.2 10
      vertex 37.6 71.5 10
    endloop
  endfacet
  facet normal -0 0 1
    outer loop
      vertex 36.8399 37.4538 10
      vertex 40.2 36.8 10
      vertex 37.6 38.5 10
    endloop
  endfacet
  facet normal 0 0 1
    outer loop
      vertex 40.2 73.2 10
      vertex 36.8399 72.5462 10
      vertex 37.6 71.5 10
    endloop
  endfacet
  facet normal 0 0 1
    outer loop
      vertex 38.2 75.2 10
      vertex 35.6101 72.1466 10
      vertex 36.8399 72.5462 10
    endloop
  endfacet
  facet normal -0 0 1
    outer loop
      vertex -35.4 71.5 10
      vertex 35.6101 70.8534 10
      vertex 35.6101 72.1466 10
    endloop
  endfacet
  facet normal 0 0 1
    outer loop
      vertex 35.6101 70.8534 10
      vertex -35.4 71.5 10
      vertex 35.6101 39.1466 10
    endloop
  endfacet
  facet normal 0 0 1
    outer loop
      vertex -35.4 38.5 10
      vertex 35.6101 39.1466 10
      vertex -35.4 71.5 10
    endloop
  endfacet
  facet normal -0 0 1
    outer loop
      vertex -38.2 75.2 10
      vertex 35.6101 72.1466 10
      vertex 38.2 75.2 10
    endloop
  endfacet
  facet normal 0 0 1
    outer loop
      vertex 35.6101 72.1466 10
      vertex -36.1601 72.5462 10
      vertex -35.4 71.5 10
    endloop
  endfacet
  facet normal 0 0 1
    outer loop
      vertex -40.2 73.2 10
      vertex -37.3899 70.8534 10
      vertex -37.3899 72.1466 10
    endloop
  endfacet
  facet normal 0 0 1
    outer loop
      vertex -37.3899 70.8534 10
      vertex -40.2 73.2 10
      vertex -37.3899 39.1466 10
    endloop
  endfacet
  facet normal -0 0 1
    outer loop
      vertex -39.7637 74.447 10
      vertex -37.3899 72.1466 10
      vertex -38.2 75.2 10
    endloop
  endfacet
  facet normal 0 0 1
    outer loop
      vertex -36.1601 72.5462 10
      vertex -38.2 75.2 10
      vertex -37.3899 72.1466 10
    endloop
  endfacet
  facet normal 0 0 1
    outer loop
      vertex 35.6101 72.1466 10
      vertex -38.2 75.2 10
      vertex -36.1601 72.5462 10
    endloop
  endfacet
  facet normal 0 0 1
    outer loop
      vertex 40.2 36.8 10
      vertex 36.8399 37.4538 10
      vertex 39.7637 35.553 10
    endloop
  endfacet
  facet normal 0 0 1
    outer loop
      vertex 39.7637 35.553 10
      vertex 36.8399 37.4538 10
      vertex 38.2 34.8 10
    endloop
  endfacet
  facet normal 0 0 1
    outer loop
      vertex 35.6101 37.8534 10
      vertex 38.2 34.8 10
      vertex 36.8399 37.4538 10
    endloop
  endfacet
  facet normal 0 0 1
    outer loop
      vertex 35.6101 39.1466 10
      vertex -35.4 38.5 10
      vertex 35.6101 37.8534 10
    endloop
  endfacet
  facet normal 0 0 1
    outer loop
      vertex -36.1601 37.4538 10
      vertex 35.6101 37.8534 10
      vertex -35.4 38.5 10
    endloop
  endfacet
  facet normal 0 0 1
    outer loop
      vertex -38.2 34.8 10
      vertex 35.6101 37.8534 10
      vertex -36.1601 37.4538 10
    endloop
  endfacet
  facet normal 0 0 1
    outer loop
      vertex 35.6101 37.8534 10
      vertex -38.2 34.8 10
      vertex 38.2 34.8 10
    endloop
  endfacet
  facet normal 0 0 1
    outer loop
      vertex -37.3899 37.8534 10
      vertex -38.2 34.8 10
      vertex -36.1601 37.4538 10
    endloop
  endfacet
  facet normal 0 0 1
    outer loop
      vertex -40.2 36.8 10
      vertex -37.3899 39.1466 10
      vertex -40.2 73.2 10
    endloop
  endfacet
  facet normal 0 -0 1
    outer loop
      vertex -39.447 35.2363 10
      vertex -37.3899 37.8534 10
      vertex -40.2 36.8 10
    endloop
  endfacet
  facet normal 0 0 1
    outer loop
      vertex -37.3899 72.1466 10
      vertex -39.7637 74.447 10
      vertex -40.2 73.2 10
    endloop
  endfacet
  facet normal 0 0 1
    outer loop
      vertex -37.3899 39.1466 10
      vertex -40.2 36.8 10
      vertex -37.3899 37.8534 10
    endloop
  endfacet
  facet normal 0 0 1
    outer loop
      vertex -37.3899 37.8534 10
      vertex -39.447 35.2363 10
      vertex -38.2 34.8 10
    endloop
  endfacet
endsolid OpenSCAD_Model
